<svg height="472pt" viewBox="-3 0 471 472" width="472pt" xmlns="http://www.w3.org/2000/svg"><path d="m152.5 280-80 72v48l21.375-14.246094c17.359375-11.578125 37.757812-17.753906 58.625-17.753906h8zm0 0" fill="#fd9226"/><path d="m312.5 280 80 72v48l-21.375-14.246094c-17.359375-11.578125-37.757812-17.753906-58.625-17.753906h-8zm0 0" fill="#fd9226"/><path d="m296.5 392h-128c-15.574219-25.964844-22.3125-56.28125-19.199219-86.398438l19.199219-185.601562h128l19.199219 185.601562c3.113281 30.117188-3.625 60.433594-19.199219 86.398438zm0 0" fill="#ebebeb"/><path d="m256.5 176c0 13.253906-10.746094 24-24 24s-24-10.746094-24-24 10.746094-24 24-24 24 10.746094 24 24zm0 0" fill="#4799cf"/><path d="m248.5 176c0 8.835938-7.164062 16-16 16s-16-7.164062-16-16 7.164062-16 16-16 16 7.164062 16 16zm0 0" fill="#6cbae5"/><path d="m256.5 256c0 13.253906-10.746094 24-24 24s-24-10.746094-24-24 10.746094-24 24-24 24 10.746094 24 24zm0 0" fill="#4799cf"/><path d="m248.5 256c0 8.835938-7.164062 16-16 16s-16-7.164062-16-16 7.164062-16 16-16 16 7.164062 16 16zm0 0" fill="#6cbae5"/><path d="m256.5 336c0 13.253906-10.746094 24-24 24s-24-10.746094-24-24 10.746094-24 24-24 24 10.746094 24 24zm0 0" fill="#4799cf"/><path d="m248.5 336c0 8.835938-7.164062 16-16 16s-16-7.164062-16-16 7.164062-16 16-16 16 7.164062 16 16zm0 0" fill="#6cbae5"/><path d="m296.5 440h-128c-5.191406-15.578125-5.191406-32.421875 0-48h128c5.191406 15.578125 5.191406 32.421875 0 48zm0 0" fill="#dbdbdb"/><path d="m232.5 0-26.128906 33.601562c-19.605469 25.203126-32.621094 54.898438-37.871094 86.398438h128c-5.25-31.5-18.265625-61.195312-37.871094-86.398438zm0 0" fill="#fd9226"/><path d="m244.691406 38.496094 8.871094-11.40625-9.863281-12.691406c-.550781.367187-1.054688.800781-1.496094 1.289062l-10.144531 12.992188c-20.398438 26.269531-33.953125 57.195312-39.445313 90-.042969.4375-.042969.882812 0 1.320312h16c5.195313-29.703125 17.582031-57.6875 36.078125-81.503906zm0 0" fill="#ffa84b"/><path d="m40.5 344h32v56h-32zm0 0" fill="#f55648"/><path d="m72.5 344h-32v-16c0-8.835938 7.164062-16 16-16s16 7.164062 16 16zm0 0" fill="#dc4d41"/><path d="m200.5 416c-4.417969 0-8 3.582031-8 8v16h16v-16c0-4.417969-3.582031-8-8-8zm0 0" fill="#c3c3c3"/><path d="m264.5 416c-4.417969 0-8 3.582031-8 8v16h16v-16c0-4.417969-3.582031-8-8-8zm0 0" fill="#c3c3c3"/><path d="m232.5 416c-4.417969 0-8 3.582031-8 8v16h16v-16c0-4.417969-3.582031-8-8-8zm0 0" fill="#c3c3c3"/><path d="m72.5 400-32 48v-48zm0 0" fill="#fd9226"/><path d="m392.5 344h32v56h-32zm0 0" fill="#f55648"/><path d="m392.5 344h32v-16c0-8.835938-7.164062-16-16-16s-16 7.164062-16 16zm0 0" fill="#dc4d41"/><path d="m392.5 400 32 48v-48zm0 0" fill="#fd9226"/><g fill="#f7f7f7"><path d="m176.5 272h16v16h-16zm0 0"/><path d="m176.5 304h16v16h-16zm0 0"/><path d="m176.5 336h16v16h-16zm0 0"/><path d="m176.5 368h16v24h-16zm0 0"/></g><path d="m.5 392h16v48h-16zm0 0" fill="#b8eaee"/><path d="m.5 456h16v16h-16zm0 0" fill="#c0f5f9"/><path d="m448.5 336h16v32h-16zm0 0" fill="#c0f5f9"/><path d="m448.5 384h16v48h-16zm0 0" fill="#c0f5f9"/><path d="m104.5 136h16v40h-16zm0 0" fill="#b8eaee"/><path d="m104.5 192h16v16h-16zm0 0" fill="#b8eaee"/><path d="m56.5 168h16v64h-16zm0 0" fill="#c0f5f9"/><path d="m56.5 248h16v16h-16zm0 0" fill="#c0f5f9"/><path d="m352.5 160h16v72h-16zm0 0" fill="#c0f5f9"/><path d="m352.5 256h16v16h-16zm0 0" fill="#c0f5f9"/><path d="m400.5 104h16v24h-16zm0 0" fill="#b8eaee"/><path d="m400.5 144h16v56h-16zm0 0" fill="#b8eaee"/><path d="m112.5 400h16v40h-16zm0 0" fill="#c0f5f9"/><path d="m112.5 456h16v16h-16zm0 0" fill="#c0f5f9"/><path d="m328.5 400h16v56h-16zm0 0" fill="#b8eaee"/><path d="m.5 336h16v40h-16zm0 0" fill="#b8eaee"/><path d="m448.5 448h16v24h-16zm0 0" fill="#c0f5f9"/><path d="m24.5 0c-5.191406 10.386719-13.613281 18.808594-24 24 10.386719 5.191406 18.808594 13.613281 24 24 5.191406-10.386719 13.613281-18.808594 24-24-10.386719-5.191406-18.808594-13.613281-24-24zm0 0" fill="#fece2f"/><path d="m72.5 56c-5.191406 10.386719-13.613281 18.808594-24 24 10.386719 5.191406 18.808594 13.613281 24 24 5.191406-10.386719 13.613281-18.808594 24-24-10.386719-5.191406-18.808594-13.613281-24-24zm0 0" fill="#f3c52d"/></svg>